<?xml version="1.0" standalone="no"?>
<!DOCTYPE svg PUBLIC "-//W3C//DTD SVG 20010904//EN"
 "http://www.w3.org/TR/2001/REC-SVG-20010904/DTD/svg10.dtd">
<svg version="1.0" xmlns="http://www.w3.org/2000/svg"
 width="270.000000pt" height="270.000000pt" viewBox="0 0 270.000000 270.000000"
 preserveAspectRatio="xMidYMid meet">
<metadata>
Created by potrace 1.14, written by Peter Selinger 2001-2017
</metadata>
<g transform="translate(0.000000,270.000000) scale(0.100000,-0.100000)"
fill="#000000" stroke="none">
<path d="M1409 2405 c-15 -8 -116 -76 -225 -150 -110 -75 -224 -153 -254 -173
-30 -20 -59 -40 -65 -45 -5 -4 -86 -59 -180 -123 -190 -129 -225 -161 -225
-203 0 -28 10 -44 273 -446 l109 -165 2 -128 c2 -113 5 -133 24 -164 29 -47
75 -68 151 -68 51 0 63 -3 76 -22 9 -13 59 -88 111 -168 53 -80 105 -153 116
-162 45 -40 63 -31 493 243 548 348 548 348 559 387 12 42 10 47 -140 280
l-126 195 11 41 c44 160 -96 401 -285 492 -39 19 -76 34 -81 34 -6 0 -54 69
-108 153 -54 83 -111 164 -126 180 -33 30 -69 34 -110 12z"/>
</g>
</svg>
